<?xml version="1.0" encoding="UTF-8"?>
<svg width="256px" height="256px" viewBox="0 0 256 256" version="1.1" xmlns="http://www.w3.org/2000/svg" xmlns:xlink="http://www.w3.org/1999/xlink">
    <!-- Generator: Sketch 49.2 (51160) - http://www.bohemiancoding.com/sketch -->
    <title>Ultimate Tag Warrior Importer</title>
    <desc>Created with Sketch.</desc>
    <defs>
        <linearGradient x1="50%" y1="-2.48949813e-15%" x2="50%" y2="100%" id="linearGradient-1">
            <stop stop-color="#99D9ED" offset="0%"></stop>
            <stop stop-color="#33B3DB" offset="100%"></stop>
        </linearGradient>
        <linearGradient x1="26.6733714%" y1="22.2994855%" x2="82.4987137%" y2="108.455632%" id="linearGradient-2">
            <stop stop-color="#C4A674" offset="0%"></stop>
            <stop stop-color="#A48F6E" offset="100%"></stop>
        </linearGradient>
        <linearGradient x1="27.2031178%" y1="8.18059189%" x2="41.8391042%" y2="55.4292934%" id="linearGradient-3">
            <stop stop-color="#BA9E73" offset="0%"></stop>
            <stop stop-color="#000000" stop-opacity="0" offset="100%"></stop>
        </linearGradient>
        <linearGradient x1="26.6688471%" y1="22.2998629%" x2="63.9653548%" y2="115.087358%" id="linearGradient-4">
            <stop stop-color="#D6BB90" offset="0%"></stop>
            <stop stop-color="#A48F6E" offset="100%"></stop>
        </linearGradient>
        <linearGradient x1="49.5814606%" y1="53.2216944%" x2="92.3548441%" y2="313.757731%" id="linearGradient-5">
            <stop stop-color="#D6BB90" offset="0%"></stop>
            <stop stop-color="#A48F6E" offset="100%"></stop>
        </linearGradient>
        <linearGradient x1="26.92256%" y1="8.03262955%" x2="38.8351547%" y2="60.2805406%" id="linearGradient-6">
            <stop stop-color="#BA9E73" offset="0%"></stop>
            <stop stop-color="#000000" stop-opacity="0" offset="100%"></stop>
        </linearGradient>
        <linearGradient x1="50%" y1="0%" x2="50%" y2="100%" id="linearGradient-7">
            <stop stop-color="#FBFBFC" offset="0%"></stop>
            <stop stop-color="#F3F4F5" offset="100%"></stop>
        </linearGradient>
        <path d="M72.4713872,111 L92.0026372,111 C95.2497075,111 97.8620122,113.612305 97.8620122,116.859375 L97.8620122,157.875 L119.273145,157.875 C123.618848,157.875 125.7917,163.124023 122.715528,166.200195 L85.5817387,203.358398 C83.750684,205.189453 69.2243168,111 72.4713872,111 Z" id="path-8"></path>
        <filter x="-2.9%" y="-1.6%" width="105.8%" height="103.2%" filterUnits="objectBoundingBox" id="filter-9">
            <feMorphology radius="0.5" operator="dilate" in="SourceAlpha" result="shadowSpreadOuter1"></feMorphology>
            <feOffset dx="0" dy="0" in="shadowSpreadOuter1" result="shadowOffsetOuter1"></feOffset>
            <feColorMatrix values="0 0 0 0 0.11372549   0 0 0 0 0.11372549   0 0 0 0 0.105882353  0 0 0 0.1 0" type="matrix" in="shadowOffsetOuter1"></feColorMatrix>
        </filter>
        <path d="M52.734375,0 L72.265625,0 C75.5126953,0 78.125,2.61230469 78.125,5.859375 L78.125,46.875 L99.5361328,46.875 C103.881836,46.875 106.054687,52.1240234 102.978516,55.2001953 L65.8447266,92.3583984 C64.0136719,94.1894531 61.0107422,94.1894531 59.1796875,92.3583984 L21.9970703,55.2001953 C18.9208984,52.1240234 21.09375,46.875 25.4394531,46.875 L46.875,46.875 L46.875,5.859375 C46.875,2.61230469 49.4873047,0 52.734375,0 Z M125,91.796875 L125,119.140625 C125,122.387695 122.387695,125 119.140625,125 L5.859375,125 C2.61230469,125 0,122.387695 0,119.140625 L0,91.796875 C0,88.5498047 2.61230469,85.9375 5.859375,85.9375 L41.6748047,85.9375 L53.6376953,97.9003906 C58.5449219,102.807617 66.4550781,102.807617 71.3623047,97.9003906 L83.3251953,85.9375 L119.140625,85.9375 C122.387695,85.9375 125,88.5498047 125,91.796875 Z" id="path-10"></path>
        <filter x="-26.4%" y="-26.4%" width="152.8%" height="152.8%" filterUnits="objectBoundingBox" id="filter-11">
            <feMorphology radius="1" operator="dilate" in="SourceAlpha" result="shadowSpreadOuter1"></feMorphology>
            <feOffset dx="0" dy="0" in="shadowSpreadOuter1" result="shadowOffsetOuter1"></feOffset>
            <feGaussianBlur stdDeviation="10" in="shadowOffsetOuter1" result="shadowBlurOuter1"></feGaussianBlur>
            <feColorMatrix values="0 0 0 0 0   0 0 0 0 0.403921569   0 0 0 0 0.6  0 0 0 0.4 0" type="matrix" in="shadowBlurOuter1"></feColorMatrix>
        </filter>
    </defs>
    <g id="Ultimate-Tag-Warrior-Importer" stroke="none" stroke-width="1" fill="none" fill-rule="evenodd">
        <rect id="Rectangle" fill="url(#linearGradient-1)" x="0" y="0" width="256" height="256"></rect>
        <rect id="Rectangle-3" fill="#EFECEA" x="76" y="20" width="160" height="160" rx="26"></rect>
        <g id="tag-warrior" transform="translate(108.000000, 18.000000)">
            <g id="g4435" transform="translate(29.446429, 64.939024) rotate(1.322875) translate(-29.446429, -64.939024) translate(3.464286, 3.463415)">
                <path d="M13.3315271,25.1705446 L0.537561576,48.1286927 L0.537561576,121.464199 L1.97105911,122.661069 L50.6383005,122.661069 L51.7134236,121.645543 L51.7134236,48.1286927 L38.9194581,25.1705446 L13.3315271,25.1705446 Z M26.1254926,29.2326498 C26.8064039,29.2326498 27.4514778,29.3414562 27.8456897,29.5228002 C29.1716749,30.1756385 29.995936,31.4450464 30.0676108,33.0046046 C30.1034483,33.8025182 30.0676108,34.1289373 29.7809113,34.7817757 C28.8491379,36.8128283 26.6630542,37.7195482 24.6561576,36.9216346 C23.7960591,36.5952155 22.971798,35.8698396 22.5417488,34.9993884 C22.1116995,34.1652061 22.0758621,32.2792287 22.5059113,31.4450464 C22.8642857,30.6834017 23.6885468,29.8854882 24.4052956,29.5228002 C24.76367,29.3414562 25.4445813,29.2326498 26.1254926,29.2326498 Z" id="path4437" fill="url(#linearGradient-2)" fill-rule="nonzero"></path>
                <path d="M23.1868227,28.8699619 C23.1868227,28.6523491 21.6099754,26.8751781 21.6816502,25.7871142 C22.2550493,21.906353 29.673399,22.4503849 30.820197,26.0409958 C29.3866995,26.7663717 28.3832512,27.7456292 27.4514778,29.3414562" id="path4439" stroke="#8F5902" stroke-width="2.00001649"></path>
                <g id="g4443" transform="translate(20.230234, 27.836301)">
                    <path d="M10.6795567,5.11390028 C10.6437192,5.62166343 10.5362069,6.12942658 10.3928571,6.60092093 C10.3928571,6.60092093 10.3928571,6.63718973 10.3928571,6.63718973 C9.78362069,8.8495863 7.81256158,10.4816821 5.44729064,10.4816821 C4.04963054,10.4816821 2.7953202,9.93765019 1.8635468,9.03093028 C2.7953202,10.0101878 4.12130542,10.6267573 5.55480296,10.6267573 C8.38596059,10.6267573 10.7153941,8.30555436 10.7153941,5.40405065 C10.6795567,5.33151306 10.6795567,5.22270667 10.6795567,5.11390028 Z" id="path4445" fill="#74582B" fill-rule="nonzero"></path>
                    <path d="M9.891133,5.36778185 C9.891133,7.8703288 7.88423645,9.8651126 5.44729064,9.8651126 C2.97450739,9.8651126 1.00344828,7.83406 1.00344828,5.36778185 C1.00344828,2.86523491 3.01034483,0.870451112 5.44729064,0.870451112 C7.92007389,0.834182315 9.891133,2.86523491 9.891133,5.36778185 Z" id="path4447" stroke="#9A7727" stroke-width="6.46312831"></path>
                    <path d="M0.358374384,5.65793223 C0.394211823,5.15016908 0.501724138,4.64240593 0.645073892,4.17091158 C0.645073892,4.17091158 0.645073892,4.13464278 0.645073892,4.13464278 C1.25431034,1.9222462 3.22536946,0.290150371 5.59064039,0.290150371 C6.98830049,0.290150371 8.24261084,0.834182315 9.17438424,1.74090222 C8.24261084,0.761644723 6.91662562,0.145075185 5.48312808,0.145075185 C2.65197044,0.145075185 0.322536946,2.46627815 0.322536946,5.36778185 C0.358374384,5.47658824 0.358374384,5.58539463 0.358374384,5.65793223 Z" id="path4449" fill="#D5C6A4" fill-rule="nonzero"></path>
                    <path d="M5.4114532,1.34194546 C3.33288177,1.34194546 1.64852217,3.04657889 1.64852217,5.15016908 C1.64852217,5.25897547 1.64852217,5.33151306 1.64852217,5.44031945 C1.68435961,4.8962875 1.82770936,4.42479315 2.04273399,3.98956759 C2.54445813,2.50254695 3.94211823,1.45075185 5.59064039,1.45075185 C6.12820197,1.45075185 6.62992611,1.55955824 7.05997537,1.74090222 C6.59408867,1.45075185 6.02068966,1.34194546 5.4114532,1.34194546 Z M7.16748768,2.32120296 C8.27844828,2.90150371 9.06687192,4.06210519 9.1385468,5.40405065 C9.1385468,5.29524426 9.1385468,5.22270667 9.1385468,5.11390028 C9.1385468,4.86001871 9.10270936,4.60613713 9.06687192,4.38852435 C8.74433498,3.48180445 8.06342365,2.75642852 7.16748768,2.32120296 Z" id="path4451" fill="url(#linearGradient-3)" fill-rule="nonzero"></path>
                </g>
                <polygon id="path4453" fill="#FFFFFF" fill-rule="nonzero" opacity="0.584" points="12.7939655 25.4244262 0 48.3825743 0 122.95122 0.716748768 122.95122 0.716748768 48.3825743 13.5107143 25.4244262"></polygon>
                <path d="M23.8318966,30.5020577 C23.8318966,30.5020577 20.7857143,15.5955824 21.7891626,8.19674797 C22.6492611,5.33151306 23.3301724,2.9377725 23.7243842,0.181343982" id="path4455" stroke="#8F5902" stroke-width="2.00001649" stroke-linecap="round"></path>
                <path d="M27.4873153,30.5020577 C27.4873153,30.5020577 30.8918719,22.8493417 29.8884236,15.4505072 C30.2826355,11.0619829 31.142734,5.58539463 31.2502463,0.145075185" id="path4457" stroke="#8F5902" stroke-width="2.00001649" stroke-linecap="round"></path>
                <polygon id="path4459" fill="#774A02" fill-rule="nonzero" points="22.4700739 24.6990503 23.0434729 24.2275559 23.1509852 24.6627815"></polygon>
                <polygon id="path4461" fill="#774A02" fill-rule="nonzero" points="29.0283251 24.3726311 29.6375616 24.8441255 29.5658867 25.2068134"></polygon>
                <path d="M1.21847291,110.184603 L1.21847291,112.143118 L5.62647783,122.33465 L7.77672414,122.33465 L2.50862069,110.184603 L1.21847291,110.184603 Z M3.22536946,110.184603 L8.49347291,122.33465 L10.6437192,122.33465 L5.37561576,110.184603 L3.22536946,110.184603 Z M6.09236453,110.184603 L11.360468,122.33465 L13.5107143,122.33465 L8.24261084,110.184603 L6.09236453,110.184603 Z M8.95935961,110.184603 L14.2274631,122.33465 L16.3777094,122.33465 L11.1096059,110.184603 L8.95935961,110.184603 Z M11.8263547,110.184603 L17.0944581,122.33465 L19.2447044,122.33465 L13.976601,110.184603 L11.8263547,110.184603 Z M14.6933498,110.184603 L19.9614532,122.33465 L22.1116995,122.33465 L16.8435961,110.184603 L14.6933498,110.184603 Z M17.5603448,110.184603 L22.8284483,122.33465 L24.9786946,122.33465 L19.7105911,110.184603 L17.5603448,110.184603 Z M20.4273399,110.184603 L25.6954433,122.33465 L27.8456897,122.33465 L22.5775862,110.184603 L20.4273399,110.184603 Z M23.294335,110.184603 L28.5624384,122.33465 L30.7126847,122.33465 L25.4445813,110.184603 L23.294335,110.184603 Z M26.16133,110.184603 L31.4294335,122.33465 L33.5796798,122.33465 L28.3115764,110.184603 L26.16133,110.184603 Z M29.0283251,110.184603 L34.2964286,122.33465 L36.4466749,122.33465 L31.1785714,110.184603 L29.0283251,110.184603 Z M31.8953202,110.184603 L37.1634236,122.33465 L39.31367,122.33465 L34.0455665,110.184603 L31.8953202,110.184603 Z M34.7623153,110.184603 L40.0304187,122.33465 L42.180665,122.33465 L36.9125616,110.184603 L34.7623153,110.184603 Z M37.6293103,110.184603 L42.8974138,122.33465 L45.0476601,122.33465 L39.7795567,110.184603 L37.6293103,110.184603 Z M40.4963054,110.184603 L45.7644089,122.33465 L47.9146552,122.33465 L42.6465517,110.184603 L40.4963054,110.184603 Z M43.3633005,110.184603 L48.6314039,122.33465 L50.7099754,122.33465 L50.7816502,122.262112 L45.5135468,110.184603 L43.3633005,110.184603 Z M46.2302956,110.184603 L51.2833744,121.790618 L51.498399,121.609274 L51.498399,117.329556 L48.3805419,110.184603 L46.2302956,110.184603 Z M49.0972906,110.184603 L51.498399,115.661191 L51.498399,110.728635 L51.2475369,110.184603 L49.0972906,110.184603 Z M1.21847291,113.811483 L1.21847291,118.780308 L2.75948276,122.370919 L4.90972906,122.370919 L1.21847291,113.811483 Z M1.21847291,120.412404 L1.21847291,122.33465 L2.04273399,122.33465 L1.21847291,120.412404 Z" id="path4473" fill="#207A87" fill-rule="nonzero"></path>
            </g>
            <polygon id="path4506" fill="#000000" fill-rule="nonzero" opacity="0.1" points="47.4746511 35.5 32.9107143 63.4737336 35.7478448 126.225622 48.0420772 126.414634 49.3660714 39.469246"></polygon>
            <g id="g4402" transform="translate(48.500000, 71.000000) rotate(-5.618064) translate(-48.500000, -71.000000) translate(6.928571, 4.329268)">
                <path d="M0,42.2560976 L50.0348495,48.1531707" id="path5132" stroke="#AB8847" stroke-width="1.00000343" stroke-dasharray="4.000013725194452,2.000006862597226"></path>
                <path d="M42.9509289,32.0770732 L29.640615,55.8531707 L29.640615,131.801463 L31.1319667,133.040976 L81.7633568,133.040976 L82.8818706,131.989268 L82.8818706,55.8531707 L69.5715567,32.0770732 L42.9509289,32.0770732 Z M56.2612428,36.2839024 C56.9696348,36.2839024 57.6407431,36.3965854 58.0508648,36.5843902 C59.4303652,37.2604878 60.2878924,38.575122 60.36246,40.1902439 C60.3997438,41.0165854 60.36246,41.3546341 60.0641896,42.0307317 C59.094811,44.1341463 56.8204997,45.0731707 54.7326073,44.2468293 C53.8377963,43.9087805 52.9802691,43.157561 52.5328635,42.2560976 C52.085458,41.3921951 52.0481742,39.4390244 52.4955798,38.575122 C52.8684177,37.7863415 53.7259449,36.96 54.4716208,36.5843902 C54.8444587,36.3965854 55.5528507,36.2839024 56.2612428,36.2839024 Z" id="path4120" fill="url(#linearGradient-4)" fill-rule="nonzero"></path>
                <path d="M53.2039718,35.9082927 C53.2039718,35.6829268 51.5634849,33.842439 51.6380525,32.7156098 C52.2345932,28.6965854 59.9523382,29.26 61.1454196,32.9785366 C59.6540679,33.7297561 58.6101217,34.7439024 57.6407431,36.3965854" id="path3813" stroke="#8F5902" stroke-width="2.00000686"></path>
                <path d="M58.6101217,32.302439 C58.3491352,32.34 58.1627162,32.6029268 58.0881486,33.1287805 C57.9017297,33.804878 57.7898783,34.9317073 58.2745676,35.495122 C58.3491352,35.5326829 58.4237028,35.5702439 58.4609865,35.6453659 C58.5355541,35.6829268 58.6101217,35.7580488 58.7219731,35.7956098 C58.7592569,35.7580488 58.7965407,35.7580488 58.8711083,35.7204878 C58.6474055,35.1195122 58.7592569,34.2931707 58.9083921,33.7673171 C59.0575272,33.0160976 59.3930814,32.8282927 59.7659193,32.9785366 C59.3185138,32.5278049 58.9083921,32.2273171 58.6101217,32.302439 Z M66.1787316,33.6921951 C65.4703395,33.6170732 64.9483664,34.7439024 65.7686099,35.6078049 C66.0295964,35.9834146 66.2532992,36.0585366 66.4024343,35.9834146 C65.917745,35.2697561 66.2160154,34.4809756 66.7379885,34.3307317 C66.7379885,34.2180488 66.7379885,34.0678049 66.7007047,33.9926829 C66.5142857,33.7673171 66.3278668,33.6921951 66.1787316,33.6921951 Z M44.2558616,33.842439 C44.2558616,33.842439 44.2931454,33.88 44.2931454,33.917561 C44.2931454,33.88 44.2558616,33.842439 44.2558616,33.842439 Z M45.0761051,34.4434146 C45.0761051,34.4434146 45.0761051,34.4434146 45.1133889,34.5185366 C45.0761051,34.4809756 45.0761051,34.4434146 45.0761051,34.4434146 Z M40.9748879,35.7204878 C40.6766176,35.7580488 40.3037796,36.2839024 39.9682255,37.5609756 C40.3410634,38.0868293 40.6766176,38.3873171 41.0121717,38.5 C40.9376041,38.3873171 40.8257527,38.2746341 40.7511851,38.1619512 C41.0494555,37.0726829 41.310442,36.5468293 41.5714286,36.3590244 C41.5341448,36.2463415 41.496861,36.1712195 41.4222934,36.0585366 C41.310442,35.8707317 41.1613069,35.7204878 40.9748879,35.7204878 Z M42.3543882,36.0209756 C42.0561179,36.0209756 41.8324151,36.1712195 41.6832799,36.3590244 C41.9815503,36.2087805 42.2798206,36.5092683 42.4662396,36.997561 C42.6526586,36.6970732 42.9882127,36.5092683 43.5474696,36.6219512 C43.5847534,36.5468293 43.5847534,36.4717073 43.6220372,36.3965854 C43.0627803,36.0960976 42.6526586,35.9834146 42.3543882,36.0209756 Z M63.5688661,36.3590244 C62.8977578,36.3965854 62.7486227,37.1853659 63.6807175,37.4858537 C63.7180013,37.5234146 63.7925689,37.5234146 63.8298527,37.5609756 C63.7552851,37.2604878 63.941704,36.96 64.3518258,36.922439 C64.314542,36.8097561 64.2772582,36.7346341 64.2399744,36.6595122 C64.2026906,36.5843902 64.1654068,36.5092683 64.128123,36.4341463 C63.9044202,36.3590244 63.7180013,36.3214634 63.5688661,36.3590244 Z M49.3264574,37.3731707 C49.0281871,37.4107317 48.6553491,37.8990244 48.319795,39.2136585 C48.6926329,39.7395122 49.0654709,40.04 49.401025,40.1526829 C49.3264574,40.04 49.214606,39.9273171 49.1400384,39.8146341 C49.2518898,39.3263415 49.401025,38.9131707 49.5128764,38.6502439 C49.401025,38.575122 49.3264574,38.5 49.214606,38.3873171 C49.214606,38.3497561 49.214606,38.3497561 49.2518898,38.3121951 C49.3637412,38.3497561 49.5128764,38.3873171 49.6620115,38.3873171 C49.7738629,38.1995122 49.8857143,38.0868293 49.9975657,38.0117073 C49.9602819,37.8990244 49.8857143,37.7863415 49.8484305,37.7112195 C49.6992953,37.4858537 49.5128764,37.3356098 49.3264574,37.3731707 Z M50.7059577,37.6360976 C50.4076874,37.6360976 50.1839846,37.7863415 50.0348495,37.9741463 C50.2212684,37.8990244 50.4076874,37.9741463 50.5568225,38.1995122 C50.7432415,38.0868293 50.9296605,37.8990244 51.0415119,37.6736585 C50.8923767,37.6360976 50.7805253,37.6360976 50.7059577,37.6360976 Z M51.8990391,38.0117073 C51.8617553,38.0868293 51.8617553,38.1995122 51.8244715,38.2746341 C51.8244715,38.2746341 51.8617553,38.2746341 51.8617553,38.2746341 C51.8990391,38.1619512 51.8990391,38.1243902 51.8990391,38.0117073 C51.9363229,38.0117073 51.8990391,38.0117073 51.8990391,38.0117073 Z M44.6286996,40.04 C44.2558616,40.077561 43.9575913,40.3780488 43.9948751,41.0917073 L44.8896861,40.9790244 C45.0388213,40.6785366 45.3370916,40.6034146 45.6353619,40.6409756 C45.448943,40.2653659 45.0015375,40.002439 44.6286996,40.04 Z M70.0935298,40.4907317 C69.7206919,40.5282927 69.3851377,40.8287805 69.4224215,41.542439 L70.3172325,41.4297561 C70.4663677,41.1292683 70.7646381,41.0165854 71.0629084,41.0917073 C71.0256246,40.9790244 70.951057,40.9039024 70.8764894,40.8287805 C70.8392056,40.7912195 70.8392056,40.7912195 70.8019218,40.7536585 C70.8019218,40.7536585 70.7646381,40.7160976 70.7273543,40.6785366 C70.5782191,40.5658537 70.3545163,40.4907317 70.0935298,40.4907317 Z M45.5607944,41.9931707 C45.262524,42.0307317 45.2252402,42.2936585 45.7472133,42.8195122 C46.157335,43.4204878 46.4556054,43.6082927 46.6420243,43.5331707 C46.6047406,43.4956098 46.5674568,43.4580488 46.530173,43.3829268 C45.8217809,42.5941463 46.2319026,42.4063415 46.8284433,42.6692683 C46.8284433,42.6317073 46.8284433,42.6317073 46.8284433,42.5941463 C46.3810378,42.1809756 45.8590647,41.9556098 45.5607944,41.9931707 Z M36.5381166,42.8195122 L36.3144138,43.195122 C36.5381166,43.2326829 36.7618193,43.3078049 37.0228059,43.4580488 C37.0228059,43.4204878 36.9855221,43.3829268 36.9855221,43.3453659 C36.9482383,43.3078049 36.9482383,43.2326829 36.9109545,43.195122 C36.8363869,43.0073171 36.6872518,42.8570732 36.5381166,42.8195122 Z M50.482255,43.8336585 C50.482255,43.8336585 50.482255,43.8712195 50.5195388,43.9087805 C50.482255,43.8712195 50.482255,43.8336585 50.482255,43.8336585 Z M51.2652146,44.4346341 C51.2652146,44.4346341 51.2652146,44.4346341 51.3024984,44.5097561 C51.3024984,44.4721951 51.2652146,44.4346341 51.2652146,44.4346341 Z M76.0962204,44.8102439 C76.170788,44.9229268 76.2453555,45.0356098 76.3199231,45.1482927 C76.4690583,45.3736585 76.6181935,45.4863415 76.7300448,45.5239024 L76.3572069,44.8478049 C76.2453555,44.8478049 76.170788,44.8478049 76.0962204,44.8102439 Z M70.5409353,45.0731707 C70.5409353,45.0731707 70.5409353,45.1107317 70.5782191,45.1482927 C70.5409353,45.1107317 70.5409353,45.0731707 70.5409353,45.0731707 Z M36.2398463,45.2609756 C36.1652787,45.3360976 36.0907111,45.3736585 36.0161435,45.4112195 C36.3516976,45.7868293 36.6126842,45.9370732 36.7991031,45.9746341 C36.6126842,45.8243902 36.4262652,45.5614634 36.2398463,45.2609756 Z M71.3611787,45.6741463 C71.3611787,45.6741463 71.3611787,45.6741463 71.3984625,45.7492683 C71.3611787,45.7117073 71.3611787,45.6741463 71.3611787,45.6741463 Z M36.27713,46.4629268 C36.0534273,46.5004878 35.9042921,46.7634146 35.9415759,47.3643902 L36.7245356,47.5897561 C36.7618193,47.2892683 36.8736707,47.1390244 37.0228059,47.0639024 C36.9855221,47.0263415 36.9855221,46.9512195 36.9482383,46.9136585 C36.7618193,46.5756098 36.5008328,46.3878049 36.27713,46.4629268 Z M70.1308136,47.4395122 C69.8325432,47.4770732 69.4597053,47.9653659 69.1241512,49.28 C69.4969891,49.8058537 69.8325432,50.1063415 70.1680974,50.2190244 C70.0935298,50.1063415 69.9816784,49.9936585 69.9071108,49.8809756 C70.2053812,48.7917073 70.5036515,48.2658537 70.7646381,48.0780488 C70.7273543,47.9653659 70.6900705,47.8526829 70.6155029,47.777561 C70.4663677,47.5521951 70.3172325,47.4019512 70.1308136,47.4395122 Z M71.5103139,47.702439 C71.2120436,47.702439 70.951057,47.8526829 70.8019218,48.0404878 C71.1001922,47.8902439 71.3984625,48.1907317 71.5848815,48.6790244 C71.7713004,48.3785366 72.1068546,48.2282927 72.6661115,48.3409756 C72.7033953,48.2658537 72.7406791,48.1907317 72.7406791,48.1156098 C72.218706,47.815122 71.8085842,47.702439 71.5103139,47.702439 Z M56.5595131,49.0921951 C56.2985266,49.0921951 56.1121076,49.355122 56.1493914,49.9936585 L56.9696348,50.2190244 C57.0069186,49.9185366 57.0814862,49.7682927 57.2306214,49.6931707 C57.1933376,49.6556098 57.1933376,49.5804878 57.1560538,49.5429268 C57.0069186,49.28 56.7832159,49.0921951 56.5595131,49.0921951 Z M70.0189622,49.6931707 C70.0189622,49.6931707 70.0189622,49.7307317 70.056246,49.7682927 C70.0189622,49.6931707 70.0189622,49.6931707 70.0189622,49.6931707 Z M63.7552851,49.8058537 C63.1214606,49.8058537 62.5249199,50.1814634 62.4130685,50.9326829 C62.1893658,51.7590244 62.0402306,53.2614634 63.046893,53.5995122 C63.0841768,53.5619512 63.1214606,53.5619512 63.1960282,53.5243902 C62.9723254,52.9234146 63.1214606,52.0970732 63.233312,51.5336585 C63.4197309,50.5570732 64.314542,50.2190244 65.1347854,50.4819512 C65.1347854,50.4443902 65.1347854,50.4443902 65.1720692,50.4068293 C64.7619475,49.9936585 64.2399744,49.8058537 63.7552851,49.8058537 Z M70.8019218,50.2565854 C70.8019218,50.2565854 70.8019218,50.2565854 70.8392056,50.3317073 C70.8392056,50.2941463 70.8019218,50.2941463 70.8019218,50.2565854 Z M57.6780269,54.3507317 C57.3797566,54.3882927 57.3424728,54.6512195 57.8644459,55.1770732 C58.2745676,55.7780488 58.5728379,55.9658537 58.7592569,55.8907317 C58.7219731,55.8531707 58.6846893,55.8156098 58.6474055,55.7404878 C57.9390135,54.9517073 58.3118514,54.7639024 58.9456758,54.9892683 C58.9456758,54.9892683 58.9456758,54.9517073 58.9456758,54.9517073 C58.4982703,54.5385366 57.9762972,54.3507317 57.6780269,54.3507317 Z M32.0267777,54.5385366 C31.6912236,54.5009756 31.5793722,54.7263415 31.9522101,55.2146341 C31.9149263,55.3273171 31.8776425,55.44 31.8403587,55.5902439 C31.616656,56.4165854 31.4675208,57.9190244 32.4741832,58.2570732 C32.511467,58.2195122 32.5860346,58.2195122 32.6233184,58.1819512 C32.3996156,57.5809756 32.5487508,56.7546341 32.6606022,56.2287805 C32.697886,56.0785366 32.697886,55.9658537 32.7351698,55.8531707 C32.1386291,55.1019512 32.7351698,54.9892683 33.4808456,55.44 C33.4435618,55.402439 33.406278,55.364878 33.3689942,55.3273171 C33.3689942,55.3273171 33.3317104,55.2897561 33.3317104,55.2897561 C33.3317104,55.2897561 33.3317104,55.2897561 33.2944266,55.2521951 C33.2944266,55.2521951 33.2571429,55.2146341 33.2198591,55.2146341 C33.0707239,55.1019512 32.9215887,54.9892683 32.7724536,54.9141463 C32.511467,54.6512195 32.2131967,54.5385366 32.0267777,54.5385366 Z M42.0188341,54.6512195 C41.4222934,54.6512195 41.310442,55.0268293 42.1679693,55.2897561 C42.2425368,55.3273171 42.2798206,55.3273171 42.3543882,55.364878 C42.4289558,55.2521951 42.6526586,55.2146341 42.9509289,55.2521951 C42.9136451,55.1770732 42.9136451,55.1019512 42.8390775,54.9892683 C42.8017937,54.9141463 42.7645099,54.8765854 42.7272261,54.8014634 C42.4662396,54.7263415 42.205253,54.6512195 42.0188341,54.6512195 Z M69.6088405,55.5526829 C68.9377322,55.5902439 68.7885971,56.3790244 69.7206919,56.6795122 C69.7579757,56.7170732 69.8325432,56.7170732 69.869827,56.7546341 C69.7952594,56.4541463 69.9816784,56.1536585 70.3918001,56.1160976 C70.3545163,56.0034146 70.3172325,55.9282927 70.2799488,55.8156098 C70.242665,55.7404878 70.2053812,55.6653659 70.1680974,55.5902439 C69.9443946,55.5526829 69.7579757,55.5526829 69.6088405,55.5526829 Z M53.6886611,57.017561 C53.1294042,56.98 52.6074311,57.2053659 52.3464446,57.7312195 C52.8684177,57.8063415 53.2039718,57.6560976 53.3903908,57.3556098 C53.4649584,57.5434146 53.5395259,57.6560976 53.6140935,57.8063415 C53.8750801,57.6560976 54.2106342,57.5809756 54.5089045,57.6185366 C54.5461883,57.5434146 54.5834721,57.4682927 54.6207559,57.3556098 C54.3597694,57.1302439 54.0242152,57.017561 53.6886611,57.017561 Z M30.6472774,57.6185366 C30.4235746,57.6560976 30.2744395,57.9190244 30.3117233,58.52 L31.1319667,58.7453659 C31.1692505,58.444878 31.2438181,58.2946341 31.3929532,58.2195122 C31.3556694,58.1819512 31.3556694,58.1068293 31.3183857,58.0692683 C31.1319667,57.7687805 30.8336963,57.5809756 30.6472774,57.6185366 Z M37.0973735,57.7687805 C36.5008328,57.7687805 36.3516976,58.1443902 37.2465086,58.4073171 C37.3210762,58.444878 37.3956438,58.444878 37.4329276,58.482439 C37.5074952,58.3697561 37.731198,58.3321951 38.0294683,58.3697561 C37.9921845,58.2946341 37.9921845,58.2195122 37.9176169,58.1068293 C37.8803331,58.0317073 37.8430493,57.9941463 37.8057655,57.9190244 C37.544779,57.8439024 37.3210762,57.7687805 37.0973735,57.7687805 Z M52.271877,57.9565854 C52.271877,57.9941463 52.2345932,58.0692683 52.2345932,58.1443902 C52.0108905,58.9707317 51.8617553,60.4356098 52.8684177,60.7736585 C52.9057015,60.7360976 52.9429853,60.7360976 53.0175529,60.6985366 C52.7938501,60.097561 52.9429853,59.2712195 53.0548366,58.7453659 C53.0921204,58.595122 53.1294042,58.444878 53.2039718,58.3321951 C52.9057015,58.2570732 52.6074311,58.1819512 52.271877,57.9565854 Z M46.1200512,60.022439 C45.7844971,60.022439 45.6353619,60.1726829 45.7472133,60.3604878 C45.8217809,60.3980488 45.8963485,60.4356098 45.9336323,60.5107317 C46.0454837,60.5482927 46.157335,60.6234146 46.3064702,60.6609756 C46.3810378,60.6985366 46.4556054,60.6985366 46.4928892,60.7360976 C46.5674568,60.6234146 46.7911595,60.5858537 47.0894299,60.6234146 C47.0521461,60.5482927 47.0521461,60.4731707 46.9775785,60.3604878 C46.9402947,60.2853659 46.9030109,60.2478049 46.8657271,60.1726829 C46.6047406,60.06 46.3064702,60.022439 46.1200512,60.022439 Z M41.5341448,60.1726829 C41.0867393,60.1726829 40.7884689,60.3980488 40.6393338,60.7360976 C39.9682255,60.7360976 39.3716848,61.0741463 39.2225496,61.9004878 C38.9988469,62.7268293 38.8497117,64.1917073 39.8563741,64.5297561 C39.8936579,64.4921951 39.9682255,64.4921951 40.0055093,64.4546341 C39.7818065,63.8536585 39.8936579,63.0273171 40.0427931,62.5014634 C40.1919283,61.7126829 40.8257527,61.3370732 41.4595772,61.3370732 C41.6832799,60.8112195 42.2798206,60.5107317 43.3610506,61.1117073 C43.3610506,61.1117073 43.3610506,61.1117073 43.3610506,61.1117073 C43.3610506,61.0741463 43.3237668,61.0365854 43.3237668,60.9990244 C43.286483,60.9614634 43.286483,60.8863415 43.2491992,60.8487805 C43.0627803,60.5107317 42.8390775,60.3604878 42.578091,60.5482927 C42.1306855,60.2853659 41.7951313,60.1726829 41.5341448,60.1726829 Z M33.4435618,62.2760976 C32.7724536,62.3136585 32.6233184,63.102439 33.5554132,63.4029268 C33.592697,63.4404878 33.6672646,63.4404878 33.7045484,63.4780488 C33.592697,63.177561 33.8163997,62.8770732 34.2265215,62.8395122 C34.1892377,62.7268293 34.1519539,62.6517073 34.1146701,62.5390244 C34.0773863,62.4639024 34.0401025,62.3887805 34.0028187,62.3136585 C33.779116,62.2760976 33.6299808,62.2760976 33.4435618,62.2760976 Z M42.5035234,62.8770732 C42.4289558,62.9521951 42.3543882,62.9897561 42.2798206,63.0273171 C42.6153748,63.4029268 42.8763613,63.5531707 43.0627803,63.5907317 C42.9136451,63.4404878 42.7272261,63.177561 42.5035234,62.8770732 Z M52.6074311,63.5156098 C52.0108905,63.5156098 51.8617553,63.8912195 52.7565663,64.1917073 C52.8311339,64.2292683 52.9057015,64.2292683 52.9802691,64.2668293 C53.0548366,64.1541463 53.2785394,64.0790244 53.5768097,64.1165854 C53.5395259,64.0414634 53.5022422,63.9663415 53.4649584,63.8536585 C53.4276746,63.7785366 53.3903908,63.7409756 53.353107,63.6658537 C53.0548366,63.5531707 52.8311339,63.5156098 52.6074311,63.5156098 Z M47.3877002,64.4170732 C45.8590647,64.4170732 46.3064702,67.0839024 47.3131326,66.7458537 C47.0148623,65.8443902 47.3877002,64.3419512 49.2518898,65.3185366 C49.2518898,65.3185366 49.2518898,65.3185366 49.2518898,65.3185366 C49.2518898,65.2809756 49.214606,65.2434146 49.214606,65.2058537 C49.1773222,65.1682927 49.1773222,65.0931707 49.1400384,65.0556098 C48.9536195,64.717561 48.7299167,64.5673171 48.4689302,64.755122 C48.0215247,64.5297561 47.6486867,64.4170732 47.3877002,64.4170732 Z M48.3943626,67.1214634 C48.319795,67.1965854 48.2452274,67.2341463 48.1706598,67.2717073 C48.506214,67.6473171 48.7672005,67.797561 48.9536195,67.835122 C48.8044843,67.684878 48.6180653,67.4219512 48.3943626,67.1214634 Z M37.2465086,67.2341463 C36.8736707,67.2341463 36.5754004,67.4595122 36.5381166,68.0604878 C36.5754004,68.1356098 36.6126842,68.2107317 36.6126842,68.2482927 L37.4329276,68.1356098 C37.5820628,67.835122 37.8803331,67.722439 38.1786035,67.797561 C37.9921845,67.4595122 37.5820628,67.2341463 37.2465086,67.2341463 Z" id="rect2924" fill="url(#linearGradient-5)" fill-rule="nonzero"></path>
                <g id="g3774" transform="translate(50.128059, 34.837805)">
                    <path d="M11.1105701,5.29609756 C11.0732864,5.82195122 10.961435,6.34780488 10.8122998,6.83609756 C10.8122998,6.83609756 10.8122998,6.87365854 10.8122998,6.87365854 C10.1784753,9.16487805 8.12786675,10.855122 5.66713645,10.855122 C4.21306855,10.855122 2.90813581,10.2917073 1.93875721,9.35268293 C2.90813581,10.3668293 4.28763613,11.0053659 5.77898783,11.0053659 C8.72440743,11.0053659 11.1478539,8.60146341 11.1478539,5.59658537 C11.1105701,5.52146341 11.1105701,5.40878049 11.1105701,5.29609756 Z" id="path3726" fill="#74582B" fill-rule="nonzero"></path>
                    <path d="M10.2903267,5.55902439 C10.2903267,8.15073171 8.20243434,10.2165854 5.66713645,10.2165854 C3.09455477,10.2165854 1.04394619,8.11317073 1.04394619,5.55902439 C1.04394619,2.96731707 3.13183857,0.901463415 5.66713645,0.901463415 C8.23971813,0.863902439 10.2903267,2.96731707 10.2903267,5.55902439 Z" id="path2927" stroke="#9A7727" stroke-width="6.46312218"></path>
                    <path d="M0.372837924,5.8595122 C0.410121717,5.33365854 0.521973094,4.80780488 0.671108264,4.3195122 C0.671108264,4.3195122 0.671108264,4.28195122 0.671108264,4.28195122 C1.30493274,1.99073171 3.35554132,0.300487805 5.81627162,0.300487805 C7.27033953,0.300487805 8.57527226,0.863902439 9.54465086,1.80292683 C8.57527226,0.788780488 7.19577194,0.150243902 5.70442024,0.150243902 C2.75900064,0.150243902 0.335554132,2.55414634 0.335554132,5.55902439 C0.372837924,5.67170732 0.372837924,5.78439024 0.372837924,5.8595122 Z" id="path3731" fill="#D5C6A4" fill-rule="nonzero"></path>
                    <path d="M5.62985266,1.3897561 C3.4673927,1.3897561 1.71505445,3.15512195 1.71505445,5.33365854 C1.71505445,5.44634146 1.71505445,5.52146341 1.71505445,5.63414634 C1.75233824,5.07073171 1.90147341,4.58243902 2.12517617,4.13170732 C2.64714926,2.59170732 4.10121717,1.50243902 5.81627162,1.50243902 C6.37552851,1.50243902 6.8975016,1.61512195 7.34490711,1.80292683 C6.86021781,1.50243902 6.26367713,1.3897561 5.62985266,1.3897561 Z M7.45675849,2.40390244 C8.61255605,3.00487805 9.43279949,4.20682927 9.50736707,5.59658537 C9.50736707,5.48390244 9.50736707,5.40878049 9.50736707,5.29609756 C9.50736707,5.03317073 9.47008328,4.7702439 9.43279949,4.54487805 C9.09724536,3.60585366 8.3888533,2.85463415 7.45675849,2.40390244 Z" id="path3741" fill="url(#linearGradient-6)" fill-rule="nonzero"></path>
                </g>
                <polygon id="path3800" fill="#FFFFFF" fill-rule="nonzero" opacity="0.584" points="42.391672 32.34 29.0813581 56.1160976 29.0813581 133.341463 29.827034 133.341463 29.827034 56.1160976 43.1373479 32.34"></polygon>
                <path d="M53.8750801,37.5985366 C53.8750801,37.5985366 50.7059577,22.1609756 51.7499039,14.4985366 C53.166688,9.80341463 54.0242152,4.28195122 54.3597694,0" id="path3809" stroke="#8F5902" stroke-width="2.00000686" stroke-linecap="round"></path>
                <path d="M57.6780269,37.5985366 C57.6780269,37.5985366 61.2199872,29.6731707 60.176041,22.0107317 C60.0269058,15.0243902 61.1081358,7.62487805 61.3318386,0.33804878" id="path3811" stroke="#8F5902" stroke-width="2.00000686" stroke-linecap="round"></path>
                <polygon id="path3815" fill="#774A02" fill-rule="nonzero" points="52.458296 31.5887805 53.0548366 31.1004878 53.166688 31.5512195"></polygon>
                <polygon id="path3817" fill="#774A02" fill-rule="nonzero" points="59.28123 31.2507317 59.9150545 31.7390244 59.8404869 32.1146341"></polygon>
                <path d="M30.349007,120.12 L30.349007,122.148293 L34.9349135,132.702927 L37.1719411,132.702927 L31.6912236,120.12 L30.349007,120.12 Z M32.4368994,120.12 L37.9176169,132.702927 L40.1546445,132.702927 L34.673927,120.12 L32.4368994,120.12 Z M35.4196028,120.12 L40.9003203,132.702927 L43.1373479,132.702927 L37.6566304,120.12 L35.4196028,120.12 Z M38.4023062,120.12 L43.8830237,132.702927 L46.1200512,132.702927 L40.6393338,120.12 L38.4023062,120.12 Z M41.3850096,120.12 L46.8657271,132.702927 L49.1027546,132.702927 L43.6220372,120.12 L41.3850096,120.12 Z M44.367713,120.12 L49.8484305,132.702927 L52.085458,132.702927 L46.6047406,120.12 L44.367713,120.12 Z M47.3504164,120.12 L52.8311339,132.702927 L55.0681614,132.702927 L49.5874439,120.12 L47.3504164,120.12 Z M50.3331198,120.12 L55.8138373,132.702927 L58.0508648,132.702927 L52.5701473,120.12 L50.3331198,120.12 Z M53.3158232,120.12 L58.7965407,132.702927 L61.0335682,132.702927 L55.5528507,120.12 L53.3158232,120.12 Z M56.2985266,120.12 L61.7792441,132.702927 L64.0162716,132.702927 L58.5355541,120.12 L56.2985266,120.12 Z M59.28123,120.12 L64.7619475,132.702927 L66.998975,132.702927 L61.5182575,120.12 L59.28123,120.12 Z M62.2639334,120.12 L67.7446509,132.702927 L69.9816784,132.702927 L64.5009609,120.12 L62.2639334,120.12 Z M65.2466368,120.12 L70.7273543,132.702927 L72.9643818,132.702927 L67.4836643,120.12 L65.2466368,120.12 Z M68.2293402,120.12 L73.7100577,132.702927 L75.9470852,132.702927 L70.4663677,120.12 L68.2293402,120.12 Z M71.2120436,120.12 L76.6927611,132.702927 L78.9297886,132.702927 L73.4490711,120.12 L71.2120436,120.12 Z M74.194747,120.12 L79.6754644,132.702927 L81.8379244,132.702927 L81.912492,132.627805 L76.4317745,120.12 L74.194747,120.12 Z M77.1774504,120.12 L82.4344651,132.139512 L82.6581678,131.951707 L82.6581678,127.519512 L79.4144779,120.12 L77.1774504,120.12 Z M80.1601537,120.12 L82.6581678,125.791707 L82.6581678,120.683415 L82.3971813,120.12 L80.1601537,120.12 Z M30.349007,123.876098 L30.349007,129.021951 L31.9522101,132.740488 L34.1892377,132.740488 L30.349007,123.876098 Z M30.349007,130.712195 L30.349007,132.702927 L31.2065343,132.702927 L30.349007,130.712195 Z" id="path4195" fill="#A40000" fill-rule="nonzero"></path>
            </g>
            <path d="M37.2410714,63.2073171 L89.2053571,58.0121951" id="path5130" stroke="#A6906C" fill="#AE9873" fill-rule="nonzero" stroke-dasharray="4,2"></path>
        </g>
        <g id="Path">
            <use fill="black" fill-opacity="1" filter="url(#filter-9)" xlink:href="#path-8"></use>
            <use fill="url(#linearGradient-7)" fill-rule="evenodd" xlink:href="#path-8"></use>
        </g>
        <g id="download" transform="translate(20.000000, 111.000000)" fill-rule="nonzero">
            <g>
                <use fill="black" fill-opacity="1" filter="url(#filter-11)" xlink:href="#path-10"></use>
                <use fill="url(#linearGradient-7)" fill-rule="evenodd" xlink:href="#path-10"></use>
            </g>
        </g>
    </g>
</svg>